<svg width="20" height="20" viewBox="0 0 20 20" fill="none" xmlns="http://www.w3.org/2000/svg">
<path d="M12.8406 14.3167C12.7617 14.2214 12.6441 14.1665 12.5204 14.1665H7.47966C7.35595 14.1665 7.23837 14.2214 7.15943 14.3167C7.08009 14.4119 7.04751 14.5372 7.0699 14.6589C7.66888 17.9035 8.81919 19.9999 10 19.9999C11.1808 19.9999 12.3311 17.9035 12.9301 14.6589C12.9525 14.5372 12.9199 14.4119 12.8406 14.3167Z" fill="white"/>
<path d="M19.5249 6.95623C19.47 6.78369 19.3097 6.6665 19.1282 6.6665H14.4362C14.3187 6.6665 14.2064 6.71615 14.1274 6.80361C14.0481 6.89111 14.0098 7.00787 14.0216 7.12506C14.1181 8.08209 14.1669 9.0497 14.1669 9.99982C14.1669 10.9499 14.1181 11.9175 14.0216 12.8746C14.0098 12.9918 14.0481 13.1086 14.1274 13.196C14.2064 13.2835 14.3187 13.3331 14.4362 13.3331H19.1283C19.3097 13.3331 19.4701 13.2159 19.525 13.0434C19.8403 12.0559 20.0002 11.0322 20.0002 9.99986C20.0002 8.96755 19.8403 7.94381 19.5249 6.95623Z" fill="white"/>
<path d="M13.8005 5.48583C13.8343 5.68642 14.0081 5.83333 14.2115 5.83333H18.4173C18.5642 5.83333 18.7005 5.7556 18.7758 5.62947C18.8506 5.50291 18.8535 5.34626 18.7831 5.21728C17.5322 2.92517 15.3834 1.17919 12.8866 0.427241C12.7259 0.377593 12.5489 0.432515 12.4419 0.56478C12.3357 0.697437 12.3202 0.880952 12.4029 1.02904C13.0099 2.11708 13.4933 3.65802 13.8005 5.48583Z" fill="white"/>
<path d="M12.7623 6.6665H7.23736C7.02455 6.6665 6.84592 6.82682 6.82314 7.03842C6.71939 8.00033 6.6665 8.99682 6.6665 9.99987C6.6665 11.0029 6.71939 11.9994 6.82314 12.9613C6.84592 13.1729 7.02455 13.3332 7.23736 13.3332H12.7623C12.9751 13.3332 13.1537 13.1729 13.1765 12.9613C13.2802 11.9994 13.3331 11.0029 13.3331 9.99987C13.3331 8.99682 13.2802 8.00033 13.1765 7.03842C13.1537 6.82682 12.9751 6.6665 12.7623 6.6665Z" fill="white"/>
<path d="M1.58271 5.83344H5.78845C5.99189 5.83344 6.16564 5.68656 6.19943 5.48594C6.50665 3.65813 6.99005 2.11719 7.59712 1.02914C7.67974 0.881018 7.66427 0.697503 7.55806 0.564885C7.45146 0.43305 7.27525 0.377307 7.11333 0.427346C4.61658 1.17934 2.46771 2.92532 1.21689 5.21742C1.1465 5.34641 1.14935 5.50309 1.22423 5.62961C1.29951 5.75574 1.43579 5.83344 1.58271 5.83344Z" fill="white"/>
<path d="M5.87281 13.196C5.95215 13.1085 5.99039 12.9918 5.97859 12.8746C5.88215 11.9176 5.83332 10.95 5.83332 9.99983C5.83332 9.04971 5.88215 8.08209 5.97859 7.12506C5.99039 7.00787 5.95215 6.89107 5.87281 6.80361C5.79387 6.71611 5.68156 6.6665 5.56398 6.6665H0.871992C0.690508 6.6665 0.530195 6.78369 0.475273 6.95623C0.159922 7.94377 0 8.96752 0 9.99983C0 11.0321 0.159922 12.0559 0.475273 13.0435C0.530195 13.216 0.690508 13.3332 0.871992 13.3332H5.56398C5.68156 13.3332 5.79387 13.2835 5.87281 13.196Z" fill="white"/>
<path d="M6.19939 14.514C6.1656 14.3134 5.99185 14.1665 5.78841 14.1665H1.58271C1.43583 14.1665 1.29951 14.2442 1.22423 14.3704C1.14935 14.4969 1.1465 14.6536 1.21689 14.7826C2.46771 17.0746 4.61654 18.8206 7.11329 19.5726C7.15275 19.5848 7.19306 19.5905 7.23333 19.5905C7.35744 19.5905 7.47747 19.5347 7.55806 19.4351C7.66427 19.3024 7.67974 19.1189 7.59712 18.9708C6.99001 17.8827 6.50661 16.3418 6.19939 14.514Z" fill="white"/>
<path d="M18.4172 14.1665H14.2115C14.0081 14.1665 13.8343 14.3134 13.8005 14.514C13.4933 16.3418 13.0099 17.8828 12.4029 18.9708C12.3202 19.1189 12.3357 19.3024 12.4419 19.4351C12.5225 19.5347 12.6425 19.5905 12.7666 19.5905C12.8065 19.5905 12.8472 19.5848 12.8867 19.5726C15.3834 18.8206 17.5323 17.0746 18.7831 14.7826C18.8535 14.6536 18.8506 14.4969 18.7758 14.3704C18.7004 14.2442 18.5642 14.1665 18.4172 14.1665Z" fill="white"/>
<path d="M7.15939 5.6832C7.23834 5.77844 7.35592 5.83336 7.47963 5.83336H12.5203C12.644 5.83336 12.7616 5.77844 12.8406 5.6832C12.9199 5.58797 12.9525 5.46266 12.9301 5.34102C12.3311 2.09637 11.1808 0 9.99998 0C8.81916 0 7.66885 2.09637 7.0699 5.34098C7.04752 5.46266 7.08006 5.58797 7.15939 5.6832Z" fill="white"/>
</svg>
